<svg width="94" height="24" viewBox="0 0 94 24" fill="none" xmlns="http://www.w3.org/2000/svg">
<path d="M6.33645 11.356H9.00045C12.0485 11.356 13.5725 9.868 13.5725 6.892C13.5725 3.892 12.0485 2.392 9.00045 2.392H6.33645V11.356ZM20.3045 21.868C20.3045 22.396 20.2565 22.864 20.1605 23.272H15.1565L10.8005 14.524C10.5125 13.948 10.2005 13.54 9.86445 13.3C9.55245 13.036 9.04845 12.904 8.35245 12.904H6.33645V21.256C7.34445 21.64 8.34045 21.868 9.32445 21.94C9.32445 22.012 9.32445 22.144 9.32445 22.336C9.32445 22.528 9.28845 22.84 9.21645 23.272H0.432453C0.432453 23.152 0.432453 22.972 0.432453 22.732C0.432453 22.492 0.480453 22.228 0.576453 21.94C1.39245 21.82 1.96845 21.64 2.30445 21.4C2.66445 21.16 2.84445 20.728 2.84445 20.104V2.716C2.10045 2.404 1.26045 2.224 0.324453 2.176C0.324453 1.6 0.372453 1.168 0.468453 0.879999H9.72045C12.1685 0.879999 14.0525 1.42 15.3725 2.5C16.7165 3.58 17.3885 5.044 17.3885 6.892C17.3885 8.284 17.0045 9.472 16.2365 10.456C15.4685 11.44 14.3405 12.124 12.8525 12.508C13.5005 12.844 14.1125 13.564 14.6885 14.668L17.3885 19.78C17.7965 20.596 18.2045 21.148 18.6125 21.436C19.0205 21.724 19.5845 21.868 20.3045 21.868ZM26.9445 11.536C26.9445 18.544 29.0445 22.048 33.2445 22.048C35.1885 22.048 36.6525 21.244 37.6365 19.636C38.6445 18.028 39.1485 15.736 39.1485 12.76C39.1485 12.544 39.1485 12.328 39.1485 12.112C39.1005 8.728 38.5125 6.208 37.3845 4.552C36.2565 2.896 34.7325 2.068 32.8125 2.068C30.8925 2.068 29.4285 2.92 28.4205 4.624C27.4365 6.328 26.9445 8.632 26.9445 11.536ZM40.4445 20.536C38.5725 22.696 36.1005 23.776 33.0285 23.776C29.9565 23.776 27.4845 22.708 25.6125 20.572C23.7645 18.412 22.8405 15.604 22.8405 12.148C22.8405 8.668 23.7645 5.836 25.6125 3.652C27.4845 1.468 29.9445 0.375999 32.9925 0.375999C36.0645 0.375999 38.5485 1.48 40.4445 3.688C42.3405 5.872 43.2885 8.692 43.2885 12.148C43.2885 15.58 42.3405 18.376 40.4445 20.536ZM74.6023 21.94C74.6263 22.156 74.6383 22.372 74.6383 22.588C74.6383 22.804 74.6263 23.032 74.6023 23.272H65.8543C65.8303 23.032 65.8183 22.804 65.8183 22.588C65.8183 22.372 65.8303 22.156 65.8543 21.94C66.7183 21.82 67.3663 21.64 67.7983 21.4C68.2303 21.136 68.4343 20.704 68.4103 20.104L67.6183 3.904L66.4663 7L59.9863 23.272H58.9423L51.9223 3.688L50.6623 21.508C51.2863 21.748 52.1743 21.892 53.3263 21.94C53.3023 22.276 53.2423 22.72 53.1463 23.272H45.8383C45.8863 22.672 45.9463 22.228 46.0183 21.94C47.6983 21.7 48.5623 21.04 48.6103 19.96L49.7623 2.608C49.1623 2.368 48.5263 2.236 47.8543 2.212C47.8303 2.068 47.8183 1.876 47.8183 1.636C47.8183 1.372 47.8783 1.12 47.9983 0.879999H54.2263L60.0583 17.332L66.5383 0.879999H72.5503C72.6223 1.168 72.6583 1.432 72.6583 1.672C72.6583 1.888 72.6583 2.056 72.6583 2.176C72.0103 2.248 71.5303 2.428 71.2183 2.716C70.9063 3.004 70.7623 3.472 70.7863 4.12L71.9383 21.472C72.7303 21.736 73.6183 21.892 74.6023 21.94ZM82.731 21.724H88.563C89.739 21.724 90.519 21.424 90.903 20.824C91.287 20.2 91.551 19.156 91.695 17.692C91.887 17.668 92.115 17.656 92.379 17.656C92.643 17.656 92.919 17.692 93.207 17.764C93.303 18.988 93.351 20.068 93.351 21.004C93.351 21.916 93.339 22.672 93.315 23.272H76.827C76.827 23.152 76.827 22.972 76.827 22.732C76.827 22.492 76.875 22.228 76.971 21.94C77.787 21.82 78.363 21.64 78.699 21.4C79.059 21.16 79.239 20.728 79.239 20.104V2.68C78.567 2.392 77.727 2.224 76.719 2.176C76.719 1.6 76.767 1.168 76.863 0.879999H92.847C92.871 1.408 92.883 2.14 92.883 3.076C92.883 3.988 92.811 5.032 92.667 6.208C92.499 6.256 92.031 6.28 91.263 6.28C91.143 4.864 90.891 3.856 90.507 3.256C90.147 2.656 89.391 2.356 88.239 2.356H82.731V11.14L88.311 10.816H89.535V12.976H88.311L82.731 12.76V21.724Z" fill="#E79702"/>
</svg>
